<svg version="1.0" xmlns="http://www.w3.org/2000/svg" width="680" height="680" viewBox="0 0 510 510"><path d="M238 137.4c0 .2.8 1 1.8 1.7 1.5 1.3 1.6 1.2.3-.4s-2.1-2.1-2.1-1.3zm11.9-.2c-.6 1.3-.6 5.8 0 5.8.4 0 .7-1.4.6-3 0-2.6-.2-3.6-.6-2.8zm5.1.8c0 .5.5 1 1 1 .6 0 1-.5 1-1 0-.6-.4-1-1-1-.5 0-1 .4-1 1zm6 .1c0 .5.5.7 1 .4.6-.3 1-.8 1-1.1 0-.2-.4-.4-1-.4-.5 0-1 .5-1 1.1zm48 0c0 .5.5.7 1 .4.6-.3 1-.8 1-1.1 0-.2-.4-.4-1-.4-.5 0-1 .5-1 1.1zm-65.5 1.9c-.3.5-.1 1 .4 1 .6 0 1.1-.5 1.1-1 0-.6-.2-1-.4-1-.3 0-.8.4-1.1 1zm55.2.6c.4 1.1.8 1.2 1.3.4.6-.9.9-.9 1.2 0 .5 1.6 3.8 2.2 3.8.8 0-.6-.7-.7-1.6-.4-1.2.4-1.5.2-1-.9.4-1.1-.1-1.5-1.9-1.5-1.8 0-2.3.4-1.8 1.6zm-44.9 3.5c-.7.5-4.3.9-8 .9-4.4 0-6.8.4-6.8 1.1 0 .8-.4.9-1.3 0-.8-.6-1.6-.8-1.9-.5-.7.6-6.1 1.5-10 1.7-1.6 0-2.8.4-2.8.9 0 .4-.5.8-1.1.8-.5 0-.7-.6-.3-1.3.6-1 .4-1-.7 0-.7.7-2.5 1.3-4 1.3s-3 .6-3.2 1.2c-.4 1-.6 1-.6 0-.1-.6-.5-1.2-1.1-1.2-.6 0-.9.5-.8 1.2.2.7-.2 1.2-.9 1.3-.6 0-1.5.3-1.9.7-.4.5-2 .8-3.6.8-1.5 0-2.8.4-2.8 1 0 .5-.8 1-1.8 1s-3.7.9-6 2c-2.2 1.1-4.8 2-5.7 2-.8 0-1.5.3-1.5.8 0 .9-6.2 3.7-7.7 3.4-.6-.1-1.4.2-1.8.8-.3.5-1.6 1-2.8 1.1-1.2 0-1.6.3-.9.6.6.2 1.2.9 1.2 1.5s-.7.8-1.5.4c-.8-.3-1.4 0-1.2.7.1.7-.6 1.1-1.7.9-1.1-.2-1.5.1-1.1.7.4.7-.4 1.1-2 1.1-2 0-2.6.4-2.1 1.5.3.8-.2 1.8-1 2.3-.9.5-1.5 1.2-1.5 1.5.1.4-.2.8-.6.9-1.3.3-3.1 2.3-2.7 2.9.5 1-3.2 5-4 4.2-.3-.3-.6-.1-.6.6s-.4.9-1 .6c-.5-.3-1-.1-1 .4 0 .6.4 1.1.9 1.1 1.1 0 .9 1.4-.8 5.5-2 4.7-4 13-4.8 19.2-.4 4.2-1.3 6.4-3.1 8.2-3 3-7.6 12.7-6.7 14.1.4.6-1.8 1-5.9 1-3.7 0-6.6.4-6.6 1 0 .5.4 1 .8 1s.8.9.8 2-.6 2-1.2 2c-.7 0-1.6-.9-1.9-2-.4-1.3-1.5-2-3-2-1.3 0-2.5-.5-2.7-1.1-.6-1.7-4.8 1.2-4.5 3.1.3 1.9 2.7 3.9 4.8 4 2.1 0 4.5 5 2.8 6.1-.7.4-.9 1.4-.6 2.3.4 1 .1 1.6-.8 1.6-.8 0-1.5.4-1.5.9 0 1 2.6.9 3.6-.2 1.1-1.1 5.4-.8 5.4.3 0 .5 1.6 1 3.5 1 4 0 4.4.9 1.5 3-2.5 1.8-2.6 3.8-.2 4.7.9.4 2.3 1.3 3.1 2.1 1.3 1.2 1.3 1.5-.1 2.3-1.2.6-1.4 2-1 6.1.6 6.2 1.8 7.6 6.6 8 2 .1 3.6.6 3.6 1s.9.8 1.9.8c1.1 0 2.2.6 2.4 1.2.4 1 .6 1 .6 0 .1-.6.5-1.2 1-1.2s.1 2-.8 4.5c-1.1 3.2-2 4.4-3.1 4-1.3-.4-1.3-.4 0 .7 2.2 1.9 5.4 9 5.1 11.5-.2 1.7.4 2.4 2.3 2.9l2.6.6-3 2.8c-2.1 2-3 3.8-3.1 6.2 0 1.8-.1 6.3-.2 10-.1 3.6.1 6.4.4 6.2.8-.5 1.9 2.1 1.9 4.4 0 .8.8 2.4 1.7 3.4 1.8 2 2.7 5.2 1.2 4.2-.5-.3-.7-.9-.4-1.4.3-.4-.1-1.2-.8-1.8-.9-.7-1.7-.3-3.1 1.6l-2 2.7 2.4-2 2.3-2-.8 2.4c-.5 1.6-.4 2.1.4 1.7.6-.4 1.1-.1 1.1.6s.8 2.2 1.6 3.3c1.6 1.9 1.6 1.9 1-.5-.5-2.1-.3-2 .8.5.8 1.6 1.2 3.4.8 3.9-.3.5 0 .6.7.2.6-.4.9-1.1.6-1.6-.7-1.1 2.2-.7 3.2.5.5.4.1.5-.7 0-.8-.5-1.2-.4-.7 0 .4.5 2.2 1 4 1.1 1.7 0 3.2.2 3.2.3 0 .3 3.6.8 8.3 1.2 1.7.2 3.2.8 3.2 1.4 0 .5.5.3 1-.5.9-1.3 1-1.3 1 0s.1 1.3 1 0c.5-.8 1-1 1-.4s1.5 1.1 3.3 1.1c1.7 0 8.4.4 14.7.9 6.3.4 26.9.8 45.7.8 22.4.1 33.9.4 33.5 1.1-.3.5.1.5.9-.1.8-.7 2.9-1.1 4.7-.9 1.7.1 3.2-.2 3.2-.7 0-.5.6-.5 1.6 0 .9.5 3.1.6 4.9.2 1.8-.4 4-.3 5 .3 1.3.7 1.6.6 1.1-.2s.8-1 4.4-.8c2.8.1 5.3-.1 5.6-.4.2-.4 1.8-.4 3.4.1 1.7.5 2.8.5 2.5 0-.3-.5.3-.9 1.2-.9 7.8-.2 10.3-.6 10.3-1.5 0-.6.5-.4 1 .4.9 1.3 1 1.3 1 0s.1-1.3 1 0c.8 1.2 1 1.2 1 .1 0-.8.7-1.1 2-.8 1.1.3 2.3.1 2.6-.5.4-.6 1-.5 1.5.3.7 1.2.9 1.2.9 0 0-.9.9-1.2 3-.9 1.7.3 3.4 0 3.7-.5.4-.6.1-.7-.7-.2-.9.5-1.1.4-.6-.4.6-.9 1.1-.9 2.4.1 1.4 1.1 1.5 1 .9-.6-.7-1.7-.6-1.7 1-.5.9.8 1.4.9 1 .3-.4-.7 0-1.5.9-1.8 1-.4 1.3-.2.9.7-.4.6 0 .4.8-.5 1-1.3 1.7-1.4 2.5-.6.8.8.9.4.5-1.3-.6-2.2-.5-2.3 1.2-.9 1.1.9 1.6 1 1.1.2-.4-.7-.2-1.2.4-1.2.6 0 .8-.5.4-1.2-.5-.8-.2-.9 1.1-.4 1.5.5 1.6.4.5-.9s-1-1.4.4-.9c1.1.4 1.6.1 1.6-1 0-.9.5-1.6 1.1-1.6.6 0 .4-.7-.4-1.5-.9-.8-1.4-2-1.3-2.7.6-2.5 1.8-4.8 2.5-4.4.4.3.7-.3.8-1.2.1-.9.9-4.5 1.7-7.9.8-3.5 1.2-9.1 1-12.5-.2-3.5-.5-7.7-.6-9.5-.1-2.3-.7-3.3-2.2-3.7-1.9-.6-1.9-.7-.4-1.6 2-1.2 3.3-6.6 2-8.3-.7-.8-.6-2.2.2-4.1 1.1-2.7.8-6.6-1.5-18.2-.4-2.3.3-3.4 2.1-3.4 1.1 0 2-.5 2-1 0-.6.7-1 1.5-1s1.5-.5 1.5-1c0-.6.8-1 1.8-1s2.4-.9 3.2-2c.8-1.1 2-2 2.7-2 .7 0 1.3-.5 1.3-1 0-.6.5-1 1.1-1 .6 0 1.7-.7 2.6-1.6 1.4-1.4 1.4-1.6-.6-2.1-1.1-.3-1.8-.9-1.5-1.4.3-.5-.2-.9-1.1-.9-1.5 0-4.5-2.2-4.5-3.4 0-.2.7-1.2 1.6-2 1.4-1.5 1.4-1.7 0-3.2-.9-.8-1.6-1.1-1.6-.5 0 .7-2 1.1-4.7 1-2.7 0-4.2-.3-3.6-.6 1-.3.9-.8-.3-2s-1.5-3.6-1.3-10.5c.1-4.9-.1-9.1-.4-9.4-.7-.8-6.6-2.2-16.2-4-7.2-1.3-9.4-2.4-9.5-4.7 0-.4 2-.7 4.5-.7s5.3-.4 6.3-.9c.9-.5 3.2-1.5 4.9-2.1 4-1.5 4.7-4.4 3.9-15.7-.3-4.3-.5-8.1-.6-8.6 0-.4-.6-.7-1.4-.7-.7 0-1.9-1.4-2.6-3-1.1-2.7-2.1-3.4-4.1-3.2-.4.1-.5-.8-.2-1.8.3-1.2 0-2-.6-2-.7 0-.9-.5-.5-1.2.4-.6.3-.8-.4-.4-.6.3-2.2-.5-3.6-1.9s-3.2-2.5-4.1-2.5c-1.6 0-4.7-2.4-4.1-3.1.2-.2-.2-1-1-1.7s-1.4-.8-1.4-.2c0 .5-.7 1-1.6 1-.8 0-1.2-.5-.9-1 .3-.6-.1-1-1-1s-1.3-.5-1-1c.3-.6.1-1-.4-1-.6 0-1.1.4-1.1.8 0 .5-.7.9-1.5.9s-1.2-.4-.9-.9c.3-.4-.4-.8-1.5-.8-1.2 0-2.1-.5-2.1-1 0-.6-1.3-1-3-1-1.6 0-3-.4-3-.9 0-.8-2.4-1.3-14.2-2.7-2.7-.3-4.5-1-4.2-1.5.3-.5-2.3-.9-5.8-1-3.5 0-7.9-.3-9.8-.6-6.4-.9-31.8-1-33.2-.2zM265 160c0 .5-.7 1-1.6 1-.8 0-1.2-.5-.9-1 .3-.6 1-1 1.6-1 .5 0 .9.4.9 1zm-56.4 4.5c-.1.8-.5 1.7-.8 2.1-.5.4-.4-1.6.1-3.4.3-.9.9.1.7 1.3zm73.4 71.9c0 .2-.8 1-1.7 1.7-1.6 1.3-1.7 1.2-.4-.4 1.3-1.6 2.1-2.1 2.1-1.3zm16.3.3c-.7.2-1.9.2-2.5 0-.7-.3-.2-.5 1.2-.5s1.9.2 1.3.5zm-10.8 1.3c.3.6-.1.7-.9.4-1.8-.7-2.1-1.4-.7-1.4.6 0 1.3.4 1.6 1zm7 .1c.2.3-.8.5-2.5.5-1.6 0-2.7-.3-2.5-.6.5-.8 4.2-.6 5 .1zm22.4 1.3c-1.1 1.1-5.9 1.7-5.9.8 0-.6 1.2-1.2 2.8-1.4 2.8-.4 3.9-.1 3.1.6zm-98.4 5.6c-.3.6.1 1.3.9 1.6 1.8.7 2.2 2.4.6 2.4-.6 0-2.2.8-3.7 1.7-3.1 2-5.3 2.5-5.3 1.2 0-.6.7-.9 1.6-.7 1 .2 1.9-.3 2.1-1 .3-.7-.4-1.2-1.6-1.2-1.2 0-2.1.5-2.1 1.1 0 .5-.4.8-.9.5-.4-.3-.7.6-.5 1.9.1 1.7-.3 2.5-1.2 2.5-.9 0-1.3-.4-1-.8.3-.5-.1-.9-.9-.9s-1.2.3-1 .7c.2.4-.2.7-1 .7s-1.2-.4-.9-.9c.3-.4-.7-.8-2.2-.8h-2.6l1.7-2.8c1.8-2.6 1.8-2.7-.1-1.1-2.6 2.1-12.7 2.5-14.3.5-.9-1.1-.9-1.6 0-2.2.7-.4.9-.3.6.3-.4.6.4 1.3 1.8 1.5 1.4.3 2.5.2 2.5-.2s1.2-.5 2.6-.2c1.6.3 3-.1 3.6-.9.8-1.1.9-1 .4.3-.3 1-.1 1.8.4 1.8.6 0 1-.7 1-1.5 0-1.8 4-2 4.1-.3 0 1 .2 1 .6 0 .3-.8 2.6-1.2 6.4-1.2 4.6 0 5.8-.3 5.3-1.3-.5-.7-.2-.7 1 .2.9.8 1.6 1 1.5.5-.2-1.4 0-2.4.7-2.4.3 0 .2.5-.1 1zm-35.5 5.1c0 .5-1.3.9-3 .9-1.6 0-3-.4-3-.8 0-.5 1.4-.9 3-1 1.7 0 3 .4 3 .9zm133.3 3.4c-.7 2.1-1.2 1.9-1-.4 0-1.1.5-1.8.9-1.5.4.3.5 1.1.1 1.9z"/><path d="M201.6 250.9c-.4.5.3.7 1.4.4 2.3-.6 2.6-1.3.6-1.3-.8 0-1.7.4-2 .9zm109.4-107c0 .5.7 1.1 1.5 1.5.9.3 1.5 0 1.5-.9 0-.8-.7-1.5-1.5-1.5s-1.5.4-1.5.9zm53 26.1c-.9.6-1 1-.3 1 .6 0 1.5-.5 1.8-1 .8-1.2.4-1.2-1.5 0zm-221.5 32c-.3.6.1.7.9.4 1.8-.7 2.1-1.4.7-1.4-.6 0-1.3.4-1.6 1zM389 236c0 .5.5 1 1 1 .6 0 1-.5 1-1 0-.6-.4-1-1-1-.5 0-1 .4-1 1zm.5 8c-.3.5-.1 1 .4 1 .6 0 1.1-.5 1.1-1 0-.6-.2-1-.4-1-.3 0-.8.4-1.1 1zm-.5 10c0 .5.5 1 1 1 .6 0 1-.5 1-1 0-.6-.4-1-1-1-.5 0-1 .4-1 1zm-269.4 6.2c.3.5 1 .6 1.5.3 1.3-.9 1.1-1.2-.6-1.2-.8 0-1.2.4-.9.9zm5.4 1.8c0 .5 1 1 2.3 1 1.8 0 1.9-.2.7-1-1.9-1.3-3-1.3-3 0zm248 66c0 .5.5 1 1 1 .6 0 1-.5 1-1 0-.6-.4-1-1-1-.5 0-1 .4-1 1zm-4 2c0 .5.5 1 1.1 1 .5 0 .7-.5.4-1-.3-.6-.8-1-1.1-1-.2 0-.4.4-.4 1zm-219.1 11.7c-1.3 1.6-1.2 1.7.4.4.9-.7 1.7-1.5 1.7-1.7 0-.8-.8-.3-2.1 1.3zm1.5 5.7c.1.8.5 1.8.8 2.2.4.3.5-.1.4-1-.1-.8-.5-1.8-.8-2.2-.4-.3-.5.1-.4 1zM222 366c0 .3-.9 1.1-2.1 1.8-1.7 1.1-2.4 1.1-3.7 0-1.5-1.2-1.6-1.1-.3.5s1.3 2 .1 2.7c-1.1.7-.2 1.5 3.3 3 9.2 4.1 28.5 2.1 27.5-2.7-.5-2.6-4.6-4.3-7.5-3.2-1.7.6-3 .5-4.4-.4-1-.8-1.7-1.6-1.4-1.9.3-.2-2.2-.4-5.5-.4s-6 .3-6 .6zm79.1 3.2c-1.1 1.7-1.1 2.2.1 2.9 1.7 1.1 7.9 1.1 9.7 0 1.9-1.2.4-5.1-2-5.1-1.1 0-1.7.5-1.4 1 .4.6 1.1.7 1.7.4.6-.4.8-.2.5.3-.7 1.1-5.9.5-6.7-.8-.3-.5-1.2.1-1.9 1.3z"/></svg>