<?xml version="1.0" standalone="no"?>
<!DOCTYPE svg PUBLIC "-//W3C//DTD SVG 20010904//EN"
 "http://www.w3.org/TR/2001/REC-SVG-20010904/DTD/svg10.dtd">
<svg version="1.0" xmlns="http://www.w3.org/2000/svg"
 width="510.000000pt" height="510.000000pt" viewBox="0 0 510.000000 510.000000"
 preserveAspectRatio="xMidYMid meet">
<metadata>
Created by potrace 1.14, written by Peter Selinger 2001-2017
</metadata>
<g transform="translate(0.000000,510.000000) scale(0.100000,-0.100000)"
fill="#000000" stroke="none">
<path d="M2380 3726 c0 -2 8 -10 18 -17 15 -13 16 -12 3 4 -13 16 -21 21 -21
13z"/>
<path d="M2499 3728 c-6 -13 -6 -58 0 -58 4 0 7 14 6 30 0 26 -2 36 -6 28z"/>
<path d="M2550 3720 c0 -5 5 -10 10 -10 6 0 10 5 10 10 0 6 -4 10 -10 10 -5 0
-10 -4 -10 -10z"/>
<path d="M2610 3719 c0 -5 5 -7 10 -4 6 3 10 8 10 11 0 2 -4 4 -10 4 -5 0 -10
-5 -10 -11z"/>
<path d="M3090 3719 c0 -5 5 -7 10 -4 6 3 10 8 10 11 0 2 -4 4 -10 4 -5 0 -10
-5 -10 -11z"/>
<path d="M2435 3700 c-3 -5 -1 -10 4 -10 6 0 11 5 11 10 0 6 -2 10 -4 10 -3 0
-8 -4 -11 -10z"/>
<path d="M2987 3694 c4 -11 8 -12 13 -4 6 9 9 9 12 0 5 -16 38 -22 38 -8 0 6
-7 7 -16 4 -12 -4 -15 -2 -10 9 4 11 -1 15 -19 15 -18 0 -23 -4 -18 -16z"/>
<path d="M2538 3659 c-7 -5 -43 -9 -80 -9 -44 0 -68 -4 -68 -11 0 -8 -4 -9
-13 0 -8 6 -16 8 -19 5 -7 -6 -61 -15 -100 -17 -16 0 -28 -4 -28 -9 0 -4 -5
-8 -11 -8 -5 0 -7 6 -3 13 6 10 4 10 -7 0 -7 -7 -25 -13 -40 -13 -15 0 -30 -6
-32 -12 -4 -10 -6 -10 -6 0 -1 6 -5 12 -11 12 -6 0 -9 -5 -8 -12 2 -7 -2 -12
-9 -13 -6 0 -15 -3 -19 -7 -4 -5 -20 -8 -36 -8 -15 0 -28 -4 -28 -10 0 -5 -8
-10 -18 -10 -10 0 -37 -9 -60 -20 -22 -11 -48 -20 -57 -20 -8 0 -15 -3 -15 -8
0 -9 -62 -37 -77 -34 -6 1 -14 -2 -18 -8 -3 -5 -16 -10 -28 -11 -12 0 -16 -3
-9 -6 6 -2 12 -9 12 -15 0 -6 -7 -8 -15 -4 -8 3 -14 0 -12 -7 1 -7 -6 -11 -17
-9 -11 2 -15 -1 -11 -7 4 -7 -4 -11 -20 -11 -20 0 -26 -4 -21 -15 3 -8 -2 -18
-10 -23 -9 -5 -15 -12 -15 -15 1 -4 -2 -8 -6 -9 -13 -3 -31 -23 -27 -29 5 -10
-32 -50 -40 -42 -3 3 -6 1 -6 -6 0 -7 -4 -9 -10 -6 -5 3 -10 1 -10 -4 0 -6 4
-11 9 -11 11 0 9 -14 -8 -55 -20 -47 -40 -130 -48 -192 -4 -42 -13 -64 -31
-82 -30 -30 -76 -127 -67 -141 4 -6 -18 -10 -59 -10 -37 0 -66 -4 -66 -10 0
-5 4 -10 8 -10 4 0 8 -9 8 -20 0 -11 -6 -20 -12 -20 -7 0 -16 9 -19 20 -4 13
-15 20 -30 20 -13 0 -25 5 -27 11 -6 17 -48 -12 -45 -31 3 -19 27 -39 48 -40
21 0 45 -50 28 -61 -7 -4 -9 -14 -6 -23 4 -10 1 -16 -8 -16 -8 0 -15 -4 -15
-9 0 -10 26 -9 36 2 11 11 54 8 54 -3 0 -5 16 -10 35 -10 40 0 44 -9 15 -30
-25 -18 -26 -38 -2 -47 9 -4 23 -13 31 -21 13 -12 13 -15 -1 -23 -12 -6 -14
-20 -10 -61 6 -62 18 -76 66 -80 20 -1 36 -6 36 -10 0 -4 9 -8 19 -8 11 0 22
-6 24 -12 4 -10 6 -10 6 0 1 6 5 12 10 12 5 0 1 -20 -8 -45 -11 -32 -20 -44
-31 -40 -13 4 -13 4 0 -7 22 -19 54 -90 51 -115 -2 -17 4 -24 23 -29 l26 -6
-30 -28 c-21 -20 -30 -38 -31 -62 0 -18 -1 -63 -2 -100 -1 -36 1 -64 4 -62 8
5 19 -21 19 -44 0 -8 8 -24 17 -34 18 -20 27 -52 12 -42 -5 3 -7 9 -4 14 3 4
-1 12 -8 18 -9 7 -17 3 -31 -16 l-20 -27 24 20 23 20 -8 -24 c-5 -16 -4 -21 4
-17 6 4 11 1 11 -6 0 -7 8 -22 16 -33 16 -19 16 -19 10 5 -5 21 -3 20 8 -5 8
-16 12 -34 8 -39 -3 -5 0 -6 7 -2 6 4 9 11 6 16 -7 11 22 7 32 -5 5 -4 1 -5
-7 0 -8 5 -12 4 -7 0 4 -5 22 -10 40 -11 17 0 32 -2 32 -3 0 -3 36 -8 83 -12
17 -2 32 -8 32 -14 0 -5 5 -3 10 5 9 13 10 13 10 0 0 -13 1 -13 10 0 5 8 10
10 10 4 0 -6 15 -11 33 -11 17 0 84 -4 147 -9 63 -4 269 -8 457 -8 224 -1 339
-4 335 -11 -3 -5 1 -5 9 1 8 7 29 11 47 9 17 -1 32 2 32 7 0 5 6 5 16 0 9 -5
31 -6 49 -2 18 4 40 3 50 -3 13 -7 16 -6 11 2 -5 8 8 10 44 8 28 -1 53 1 56 4
2 4 18 4 34 -1 17 -5 28 -5 25 0 -3 5 3 9 12 9 78 2 103 6 103 15 0 6 5 4 10
-4 9 -13 10 -13 10 0 0 13 1 13 10 0 8 -12 10 -12 10 -1 0 8 7 11 20 8 11 -3
23 -1 26 5 4 6 10 5 15 -3 7 -12 9 -12 9 0 0 9 9 12 30 9 17 -3 34 0 37 5 4 6
1 7 -7 2 -9 -5 -11 -4 -6 4 6 9 11 9 24 -1 14 -11 15 -10 9 6 -7 17 -6 17 10
5 9 -8 14 -9 10 -3 -4 7 0 15 9 18 10 4 13 2 9 -7 -4 -6 0 -4 8 5 10 13 17 14
25 6 8 -8 9 -4 5 13 -6 22 -5 23 12 9 11 -9 16 -10 11 -2 -4 7 -2 12 4 12 6 0
8 5 4 12 -5 8 -2 9 11 4 15 -5 16 -4 5 9 -11 13 -10 14 4 9 11 -4 16 -1 16 10
0 9 5 16 11 16 6 0 4 7 -4 15 -9 8 -14 20 -13 27 6 25 18 48 25 44 4 -3 7 3 8
12 1 9 9 45 17 79 8 35 12 91 10 125 -2 35 -5 77 -6 95 -1 23 -7 33 -22 37
-19 6 -19 7 -4 16 20 12 33 66 20 83 -7 8 -6 22 2 41 11 27 8 66 -15 182 -4
23 3 34 21 34 11 0 20 5 20 10 0 6 7 10 15 10 8 0 15 5 15 10 0 6 8 10 18 10
10 0 24 9 32 20 8 11 20 20 27 20 7 0 13 5 13 10 0 6 5 10 11 10 6 0 17 7 26
16 14 14 14 16 -6 21 -11 3 -18 9 -15 14 3 5 -2 9 -11 9 -15 0 -45 22 -45 34
0 2 7 12 16 20 14 15 14 17 0 32 -9 8 -16 11 -16 5 0 -7 -20 -11 -47 -10 -27
0 -42 3 -36 6 10 3 9 8 -3 20 -12 12 -15 36 -13 105 1 49 -1 91 -4 94 -7 8
-66 22 -162 40 -72 13 -94 24 -95 47 0 4 20 7 45 7 25 0 53 4 63 9 9 5 32 15
49 21 40 15 47 44 39 157 -3 43 -5 81 -6 86 0 4 -6 7 -14 7 -7 0 -19 14 -26
30 -11 27 -21 34 -41 32 -4 -1 -5 8 -2 18 3 12 0 20 -6 20 -7 0 -9 5 -5 12 4
6 3 8 -4 4 -6 -3 -22 5 -36 19 -14 14 -32 25 -41 25 -16 0 -47 24 -41 31 2 2
-2 10 -10 17 -8 7 -14 8 -14 2 0 -5 -7 -10 -16 -10 -8 0 -12 5 -9 10 3 6 -1
10 -10 10 -9 0 -13 5 -10 10 3 6 1 10 -4 10 -6 0 -11 -4 -11 -8 0 -5 -7 -9
-15 -9 -8 0 -12 4 -9 9 3 4 -4 8 -15 8 -12 0 -21 5 -21 10 0 6 -13 10 -30 10
-16 0 -30 4 -30 9 0 8 -24 13 -142 27 -27 3 -45 10 -42 15 3 5 -23 9 -58 10
-35 0 -79 3 -98 6 -64 9 -318 10 -332 2z m112 -159 c0 -5 -7 -10 -16 -10 -8 0
-12 5 -9 10 3 6 10 10 16 10 5 0 9 -4 9 -10z m-564 -45 c-1 -8 -5 -17 -8 -21
-5 -4 -4 16 1 34 3 9 9 -1 7 -13z m734 -719 c0 -2 -8 -10 -17 -17 -16 -13 -17
-12 -4 4 13 16 21 21 21 13z m163 -3 c-7 -2 -19 -2 -25 0 -7 3 -2 5 12 5 14 0
19 -2 13 -5z m-108 -13 c3 -6 -1 -7 -9 -4 -18 7 -21 14 -7 14 6 0 13 -4 16
-10z m70 -1 c2 -3 -8 -5 -25 -5 -16 0 -27 3 -25 6 5 8 42 6 50 -1z m224 -13
c-11 -11 -59 -17 -59 -8 0 6 12 12 28 14 28 4 39 1 31 -6z m-984 -56 c-3 -6 1
-13 9 -16 18 -7 22 -24 6 -24 -6 0 -22 -8 -37 -17 -31 -20 -53 -25 -53 -12 0
6 7 9 16 7 10 -2 19 3 21 10 3 7 -4 12 -16 12 -12 0 -21 -5 -21 -11 0 -5 -4
-8 -9 -5 -4 3 -7 -6 -5 -19 1 -17 -3 -25 -12 -25 -9 0 -13 4 -10 8 3 5 -1 9
-9 9 -8 0 -12 -3 -10 -7 2 -4 -2 -7 -10 -7 -8 0 -12 4 -9 9 3 4 -7 8 -22 8
l-26 0 17 28 c18 26 18 27 -1 11 -26 -21 -127 -25 -143 -5 -9 11 -9 16 0 22 7
4 9 3 6 -3 -4 -6 4 -13 18 -15 14 -3 25 -2 25 2 0 4 12 5 26 2 16 -3 30 1 36
9 8 11 9 10 4 -3 -3 -10 -1 -18 4 -18 6 0 10 7 10 15 0 18 40 20 41 3 0 -10 2
-10 6 0 3 8 26 12 64 12 46 0 58 3 53 13 -5 7 -2 7 10 -2 9 -8 16 -10 15 -5
-2 14 0 24 7 24 3 0 2 -5 -1 -10z m-355 -51 c0 -5 -13 -9 -30 -9 -16 0 -30 4
-30 8 0 5 14 9 30 10 17 0 30 -4 30 -9z m1333 -34 c-7 -21 -12 -19 -10 4 0 11
5 18 9 15 4 -3 5 -11 1 -19z"/>
<path d="M2016 2591 c-4 -5 3 -7 14 -4 23 6 26 13 6 13 -8 0 -17 -4 -20 -9z"/>
<path d="M3110 3661 c0 -5 7 -11 15 -15 9 -3 15 0 15 9 0 8 -7 15 -15 15 -8 0
-15 -4 -15 -9z"/>
<path d="M3640 3400 c-9 -6 -10 -10 -3 -10 6 0 15 5 18 10 8 12 4 12 -15 0z"/>
<path d="M1425 3080 c-3 -6 1 -7 9 -4 18 7 21 14 7 14 -6 0 -13 -4 -16 -10z"/>
<path d="M3890 2740 c0 -5 5 -10 10 -10 6 0 10 5 10 10 0 6 -4 10 -10 10 -5 0
-10 -4 -10 -10z"/>
<path d="M3895 2660 c-3 -5 -1 -10 4 -10 6 0 11 5 11 10 0 6 -2 10 -4 10 -3 0
-8 -4 -11 -10z"/>
<path d="M3890 2560 c0 -5 5 -10 10 -10 6 0 10 5 10 10 0 6 -4 10 -10 10 -5 0
-10 -4 -10 -10z"/>
<path d="M1196 2498 c3 -5 10 -6 15 -3 13 9 11 12 -6 12 -8 0 -12 -4 -9 -9z"/>
<path d="M1250 2480 c0 -5 10 -10 23 -10 18 0 19 2 7 10 -19 13 -30 13 -30 0z"/>
<path d="M3730 1820 c0 -5 5 -10 10 -10 6 0 10 5 10 10 0 6 -4 10 -10 10 -5 0
-10 -4 -10 -10z"/>
<path d="M3690 1800 c0 -5 5 -10 11 -10 5 0 7 5 4 10 -3 6 -8 10 -11 10 -2 0
-4 -4 -4 -10z"/>
<path d="M1499 1683 c-13 -16 -12 -17 4 -4 9 7 17 15 17 17 0 8 -8 3 -21 -13z"/>
<path d="M1514 1626 c1 -8 5 -18 8 -22 4 -3 5 1 4 10 -1 8 -5 18 -8 22 -4 3
-5 -1 -4 -10z"/>
<path d="M2220 1440 c0 -3 -9 -11 -21 -18 -17 -11 -24 -11 -37 0 -15 12 -16
11 -3 -5 13 -16 13 -20 1 -27 -11 -7 -2 -15 33 -30 92 -41 285 -21 275 27 -5
26 -46 43 -75 32 -17 -6 -30 -5 -44 4 -10 8 -17 16 -14 19 3 2 -22 4 -55 4
-33 0 -60 -3 -60 -6z"/>
<path d="M3011 1408 c-11 -17 -11 -22 1 -29 17 -11 79 -11 97 0 19 12 4 51
-20 51 -11 0 -17 -5 -14 -10 4 -6 11 -7 17 -4 6 4 8 2 5 -3 -7 -11 -59 -5 -67
8 -3 5 -12 -1 -19 -13z"/>
</g>
</svg>
